# File created by Blade
# Date/Time:  Wed Apr 08 14:55:03 2015
# Frame Rate: 120.000 fps
#------------------------------------------------------
:FULLY-SPECIFIED
:DEGREES
1027
root 5.721342 32.013020 4.024663 -90.456901 75.693268 -115.113017
Spine -3.454161 -5.934596 4.334065
Head -40.660728 -54.151077 46.972578
LeftShoulder -15.090283 43.372010 14.544223
LeftArm 57.600982 7.246630 -65.139287
LeftForeArm 2.369839 -0.000000 126.657860
LeftHand 12.638292 0.000000 16.069591
LeftHandThumb1 -26.253704 0.000000 33.147579
RightShoulder -1.425712 1.504805 -21.132405
RightArm 27.568705 -37.706067 77.151297
RightForeArm 0.028002 -0.000000 108.832295
RightHand 14.513856 -0.000000 -17.068916
RightHandThumb1 -24.326973 -0.000000 -32.862282
LeftUpLeg -38.570505 2.967039 27.956123
LeftLeg 30.298293 -0.000000 -0.000000
LeftFoot -12.174627 6.449588 -21.146775
LeftToeBase -10.167404 -0.000000 0.000000
RightUpLeg -25.949498 -2.394472 5.395629
RightLeg 18.029886 -0.000000 -0.000000
RightFoot -9.010092 -13.328833 13.977077
RightToeBase -11.217607 -0.000000 0.000000
1028
root 5.771616 31.999005 4.130861 -89.476267 76.010363 -113.979039
Spine -3.706843 -5.882047 4.069405
Head -39.661179 -54.077971 46.157808
LeftShoulder -15.229582 43.524567 14.378818
LeftArm 57.535633 7.764125 -65.512497
LeftForeArm 2.506630 -0.000000 126.564889
LeftHand 12.677249 0.000000 15.861013
LeftHandThumb1 -26.253704 0.000000 33.147579
RightShoulder -1.500750 1.243725 -21.033352
RightArm 27.715315 -37.869289 76.534902
RightForeArm -0.184141 -0.000000 108.763528
RightHand 14.529424 -0.000000 -17.005444
RightHandThumb1 -24.326973 -0.000000 -32.862282
LeftUpLeg -38.278554 2.886925 27.985817
LeftLeg 30.496775 -0.000000 -0.000000
LeftFoot -12.082438 6.484287 -20.897822
LeftToeBase -10.722269 -0.000000 0.000000
RightUpLeg -25.785850 -2.252789 5.286777
RightLeg 18.179095 -0.000000 -0.000000
RightFoot -9.468619 -13.001048 13.980258
RightToeBase -11.009111 -0.000000 0.000000
1029
root 5.821088 31.989887 4.228340 -88.537747 76.347644 -112.878561
Spine -3.931018 -5.942475 3.796487
Head -38.593558 -53.909846 45.292644
LeftShoulder -15.427241 43.691201 14.161648
LeftArm 57.425019 8.287555 -65.868650
LeftForeArm 2.572232 0.000000 126.485112
LeftHand 12.452313 -0.000000 15.610866
LeftHandThumb1 -26.253704 0.000000 33.147579
RightShoulder -1.538105 1.070517 -20.962283
RightArm 27.771552 -38.056972 76.049069
RightForeArm -0.357772 -0.000000 108.671293
RightHand 14.399108 -0.000000 -16.890163
RightHandThumb1 -24.326973 -0.000000 -32.862282
LeftUpLeg -37.973384 2.690223 28.019402
LeftLeg 30.682095 -0.000000 -0.000000
LeftFoot -11.992910 6.513276 -20.730410
LeftToeBase -11.088132 -0.000000 0.000000
RightUpLeg -25.589153 -2.135762 5.154075
RightLeg 18.262122 -0.000000 -0.000000
RightFoot -9.886443 -12.803578 13.868028
RightToeBase -10.764166 -0.000000 0.000000
1030
root 5.871757 31.984703 4.316650 -87.546289 76.714265 -111.702548
Spine -4.124826 -6.020761 3.490349
Head -37.598375 -53.739241 44.516337
LeftShoulder -15.606184 43.876280 13.979310
LeftArm 57.311729 8.841783 -66.247721
LeftForeArm 2.618041 -0.000000 126.390867
LeftHand 12.346919 0.000000 15.484284
LeftHandThumb1 -26.253704 0.000000 33.147579
RightShoulder -1.573316 0.918250 -20.915125
RightArm 27.751788 -38.258846 75.669637
RightForeArm -0.486016 -0.000000 108.541122
RightHand 14.321084 -0.000000 -16.937987
RightHandThumb1 -24.326973 -0.000000 -32.862282
LeftUpLeg -37.617261 2.396830 28.029979
LeftLeg 30.818395 -0.000000 -0.000000
LeftFoot -11.913584 6.614030 -20.599621
LeftToeBase -11.477298 -0.000000 0.000000
RightUpLeg -25.391446 -2.050002 4.989150
RightLeg 18.372338 -0.000000 -0.000000
RightFoot -10.225750 -12.588165 13.735130
RightToeBase -10.653617 -0.000000 0.000000
1031
root 5.923323 31.983977 4.395709 -86.538754 77.102418 -110.532903
Spine -4.339787 -6.146128 3.171675
Head -36.570740 -53.542581 43.704949
LeftShoulder -15.746661 43.965798 13.849301
LeftArm 57.062206 9.458441 -66.666951
LeftForeArm 2.721342 0.000000 126.302609
LeftHand 12.358693 -0.000000 15.381233
LeftHandThumb1 -26.253704 0.000000 33.147579
RightShoulder -1.647844 0.697677 -20.856724
RightArm 27.792720 -38.482966 75.304123
RightForeArm -0.534802 0.000000 108.329460
RightHand 14.397341 0.000000 -16.884274
RightHandThumb1 -24.326973 -0.000000 -32.862282
LeftUpLeg -37.268668 2.088316 27.991262
LeftLeg 30.916052 -0.000000 -0.000000
LeftFoot -11.800112 6.737608 -20.485817
LeftToeBase -11.965519 -0.000000 0.000000
RightUpLeg -25.215675 -2.018217 4.811094
RightLeg 18.467311 -0.000000 -0.000000
RightFoot -10.489719 -12.433853 13.527259
RightToeBase -10.573460 -0.000000 0.000000
